<?xml version="1.0" encoding="utf-8"?>
<!-- Generator: Adobe Illustrator 22.1.0, SVG Export Plug-In . SVG Version: 6.00 Build 0)  -->
<svg version="1.1" xmlns="http://www.w3.org/2000/svg" xmlns:xlink="http://www.w3.org/1999/xlink" x="0px" y="0px"
	 viewBox="0 0 138 45" style="enable-background:new 0 0 138 45;" xml:space="preserve">
<style type="text/css">
	.st0{fill:#fff;}
</style>
<g id="dots">
	<g>
		<g>
			<path class="st0" d="M44.4,27.6c1.5,0,2.9-0.6,3.9-1.6c0.3-0.3,0.5-0.5,0.7-0.8c0.2-0.3,0.4-0.6,0.5-1c0.1-0.3,0.2-0.7,0.3-1
				c0.1-0.4,0.1-0.7,0.1-1.1c0-1.4-0.6-2.9-1.6-3.9c-0.3-0.3-0.5-0.5-0.8-0.7s-0.6-0.4-1-0.5c-0.3-0.1-0.7-0.2-1-0.3
				c-1.8-0.4-3.7,0.2-5,1.5c-0.3,0.3-0.5,0.5-0.7,0.8c-0.2,0.3-0.4,0.6-0.5,0.9c-0.1,0.3-0.2,0.7-0.3,1c-0.1,0.3-0.1,0.7-0.1,1.1
				c0,0.4,0,0.7,0.1,1.1c0.1,0.3,0.2,0.7,0.3,1c0.1,0.3,0.3,0.7,0.5,1s0.4,0.6,0.7,0.8C41.5,27,42.9,27.6,44.4,27.6z"/>
		</g>
	</g>
	<g>
		<g>
			<path class="st0" d="M66.3,27.6c1.5,0,2.9-0.6,3.9-1.6c0.3-0.3,0.5-0.5,0.7-0.8c0.2-0.3,0.4-0.6,0.5-1c0.1-0.3,0.2-0.7,0.3-1
				c0.1-0.4,0.1-0.7,0.1-1.1c0-1.4-0.6-2.9-1.6-3.9c-0.3-0.3-0.5-0.5-0.8-0.7s-0.6-0.4-1-0.5c-0.3-0.1-0.7-0.2-1-0.3
				c-1.8-0.4-3.7,0.2-5,1.5c-0.3,0.3-0.5,0.5-0.7,0.8c-0.2,0.3-0.4,0.6-0.5,0.9c-0.1,0.3-0.2,0.7-0.3,1c-0.1,0.3-0.1,0.7-0.1,1.1
				c0,0.4,0,0.7,0.1,1.1c0.1,0.3,0.2,0.7,0.3,1c0.1,0.3,0.3,0.7,0.5,1s0.4,0.6,0.7,0.8C63.5,27,64.9,27.6,66.3,27.6z"/>
		</g>
	</g>
	<g>
		<g>
			<path class="st0" d="M88.3,27.6c1.5,0,2.9-0.6,3.9-1.6c0.3-0.3,0.5-0.5,0.7-0.8c0.2-0.3,0.4-0.6,0.5-1c0.1-0.3,0.2-0.7,0.3-1
				c0.1-0.4,0.1-0.7,0.1-1.1c0-1.4-0.6-2.9-1.6-3.9c-0.3-0.3-0.5-0.5-0.8-0.7s-0.6-0.4-1-0.5c-0.3-0.1-0.7-0.2-1-0.3
				c-1.8-0.4-3.7,0.2-5,1.5c-0.3,0.3-0.5,0.5-0.7,0.8c-0.2,0.3-0.4,0.6-0.5,0.9c-0.1,0.3-0.2,0.7-0.3,1c-0.1,0.3-0.1,0.7-0.1,1.1
				c0,0.4,0,0.7,0.1,1.1c0.1,0.3,0.2,0.7,0.3,1c0.1,0.3,0.3,0.7,0.5,1s0.4,0.6,0.7,0.8C85.4,27,86.8,27.6,88.3,27.6z"/>
		</g>
	</g>
</g>
<g id="Layer_4">
	<g id="arrow_1_">
		<g>
			<g>
				<path class="st0" d="M32.5,44.8c1,0,2-0.4,2.7-1.3c1.2-1.5,1-3.7-0.5-4.9L13.9,21.8L34.6,6.3c1.5-1.2,1.9-3.4,0.7-4.9
					c-1.2-1.5-3.4-1.9-4.9-0.7L2.5,21.6l27.8,22.4C31,44.6,31.8,44.8,32.5,44.8z"/>
			</g>
		</g>
	</g>
</g>
</svg>
